<?xml version="1.0" encoding="UTF-8"?>
<svg id="Capa_1" data-name="Capa 1" xmlns="http://www.w3.org/2000/svg" viewBox="0 0 628.65 707.32">
  <defs>
    <style>
      .cls-1, .cls-2 {
        fill: #00e9f1;
      }

      .cls-2 {
        stroke: #000;
      }

      .cls-2, .cls-3 {
        stroke-miterlimit: 10;
      }

      .cls-3 {
        fill: #04a5a5;
        stroke: #00e9f1;
      }
    </style>
  </defs>
  <polygon class="cls-2" points="324.21 65.66 69.27 212.85 69.27 507.22 324.21 654.41 579.14 507.22 579.14 212.85 324.21 65.66"/>
  <path class="cls-3" d="M67.52,218.48l253.25,141.92-.38,283.03h-.51l-135.89-73.98,3.88-128.12-118.41-69.11-1.94-153.74Z"/>
  <g>
    <path d="M297.11,682.95L53.82,542.51l-22.76-13.19V195.74l22.75-13.18L297.12,42.11l22.76-13.18,22.77,13.19,243.28,140.44,22.76,13.18v333.58l-22.75,13.18-243.3,140.45-22.76,13.19-22.77-13.19Zm16.28-51.34V357l124.1-72.5,109.67-63.42-107.13-61.88-119.1,69.46-121.16-69.47-116.69,67.45v138.96l119.62,68.96v133.35l110.69,63.73Zm138.18-72.26l104.61-59.92v-125.79l-104.61,60.37v125.35Z"/>
    <path class="cls-1" d="M319.88,37.02l19.26,11.15,243.29,140.45,19.26,11.15v325.52l-19.26,11.16-243.29,140.45-19.26,11.16-19.26-11.16L57.33,536.45l-19.26-11.16V199.78l19.26-11.15L300.62,48.17l19.26-11.15m1.02,183.55l-121.14-69.46-123.67,71.49v147.04l119.62,68.96v133.35l124.18,71.49h.51V361.01l120.63-70.48,120.12-69.46-121.14-69.97-119.11,69.46m123.67,350.87l118.61-67.94v-141.97l-118.61,68.45v141.47M319.88,20.84l-7.02,4.06-19.26,11.15L50.33,176.5l-19.28,11.16-6.98,4.04v341.65l6.98,4.04,19.26,11.16,243.31,140.46,19.24,11.15,7.02,4.07,7.02-4.07,19.26-11.16,243.27-140.44,19.28-11.17,6.98-4.04V191.71l-6.98-4.04-19.26-11.15L346.14,36.05l-19.24-11.14-7.02-4.06h0ZM90.08,230.67l109.7-63.42,114.15,65.45,7.02,4.03,6.99-4.08,112.09-65.37,93.13,53.79-99.15,57.34-.03,.02-.03,.02-120.63,70.48-6.94,4.05v266.53l-96.69-55.66v-133.34l-7.01-4.04-112.61-64.92V230.67h0Zm368.48,207.38l90.61-52.29v109.61l-90.61,51.9v-109.23h0Z"/>
  </g>
</svg>