<?xml version="1.0" encoding="UTF-8"?>
<svg id="Capa_1" data-name="Capa 1" xmlns="http://www.w3.org/2000/svg" viewBox="0 0 255.86 258.28">
  <defs>
    <style>
      .cls-1 {
        stroke-width: 3px;
      }

      .cls-1, .cls-2, .cls-3, .cls-4 {
        stroke: #91fdfe;
        stroke-miterlimit: 10;
      }

      .cls-1, .cls-2, .cls-4 {
        fill: none;
      }

      .cls-5 {
        fill: #91fdfe;
      }

      .cls-6 {
        fill: #c4ecf7;
      }

      .cls-7, .cls-3 {
        fill: #1a4956;
      }

      .cls-8 {
        fill: #4ea09d;
      }

      .cls-2 {
        stroke-width: 3.18px;
      }

      .cls-4 {
        stroke-width: 4px;
      }
    </style>
  </defs>
  <ellipse class="cls-8" cx="94.45" cy="150.58" rx="16.29" ry="16.62"/>
  <polygon class="cls-6" points="116.25 41.92 116.47 49.85 134.75 48.97 128.58 41.92 127.7 29.15 116.25 41.92"/>
  <path class="cls-7" d="M114.94,43.68l.6,4.58-6.37,4.38-10.56,4.98-1,11.15,1.39,4.78-2.19,12.75s-5.98,9.56-5.98,8.96-7.37,35.26-7.37,35.26c0,0,4.98-4.18,8.76-2.19,3.59-10.36,4.58-14.74,5.38-15.34s5.98-13.15,5.98-13.15c0,0-3.98,19.72-4.38,31.67s2.79,24.9,2.79,27.29,6.18,13.15,6.18,13.15l-1.39,27.09,3.98,10.76v21.31l-7.37,8.96-7.17,3.59v4.98s3.11,1.58,6.63,1.4,6.96-2.27,6.96-2.27l3.39-1.56s7.71-1.29,8.21-2.5v-5.89l-1.65-8.92,.8-15.96,3.12-18.95-4.1-20.87,.04-38.04,5.93,14.09,6.6,15.3,8.96,12.93,1.96,17.97,2.63,6.15,6.69,12.75,3.39,10.12,.22,8.29,2.27,5.84,.18,14.09,6.29,3.21,5.22-.09,4.33-4.68v-4.82l-3.92-5.44-3.61-5.66v-3.88l-3.08-8.43-2.63-15.52-1.69-16.01-8.65-16.41-2.1-8.16-1.74-15.65-4.41-17.48-1.52-8.56-1.38-9.23-3.52-11.64,.98-11.95,8.78-16.14,2.59,9.28,3.84,4.41,.67,3.61-.89,9.41,.36,6.42,2.36,16.86-2.85,3.79s1.92,2.99,5.22,3.03,4.59-1.25,4.59-1.25l1.11-10.39,3.84-19.26-3.21-11.91-2.54-12.8-.54-7.05-2.63-7.05s-.45-5.57-.58-5.98-3.43-5.53-6.29-6.87-8.03-.94-8.03-.94l-10.57-4.55-2.27-6.15-6.69,4.82-1.25,4.06-2.76,.36-.58-3.12-3.74-1.16Z"/>
  <path class="cls-6" d="M108.51,22.8v3.97l.98,2.14-.13,3.08,6.2,11.68s4.06,.98,4.82,.49,5.53-7.54,5.53-7.54l.8-4.33s3.3-1.65,3.57-3.3,.18-5.13,.18-5.13l-2.14-.98-1.87,1.34-.98,3.3s-1.07-4.37-1.2-4.64-1.87-1.69-1.87-1.69l-1.16-4.41-7.13,3.52-5.57-.76v3.26Z"/>
  <path class="cls-7" d="M125.37,11.03s-5.53-.98-7.45-2.23-3.12-2.76-3.12-2.76l-1.16,4.1-5.44-2.99,1.07,3.84-5.62,.31,2.41,2.45-3.03,1.56,4.15,.67-3.08,4.37,4.41-.8,5.57,.76,7.13-3.52,.36,4.5,2.23,1.96,1.11,5.71,1.47-1.29s-.54-2.9,.49-3.79,2.23-.49,2.23-.49l.27-7.45-1.83-.94,.22-2.54-2.41-1.43Z"/>
  <path class="cls-6" d="M151.86,129.87l-2.97,3.97-1.44,8.73,1.92,1.34,2.01-3.84,1.15,3.07s.67,2.59,.1,4.99-1.73,4.89-1.06,5.08,1.53,.77,1.53,.77l2.11-4.8-.77,4.22,2.11-.48,4.12-4.6s.96-7.29,1.15-9.78-.17-6.89-.17-6.89c0,0-5.59,1.44-9.81-1.78Z"/>
  <path class="cls-6" d="M83.47,130.53l-1.92,7.35,2.97,6.71,.67,3.55s1.92-.1,2.21-2.49-1.34-7.1-1.34-7.1l1.34-2.69s3.84-1.82,5.95-1.82c-.19-3.17-1.12-5.7-1.12-5.7,0,0-4.07-2.18-8.76,2.19Z"/>
  <path class="cls-2" d="M99.84,69.39l1.3-9.33s1.04-1.81,2.98-1.42,7.51,5.18,7.51,5.18l-2.2,40.94"/>
  <path class="cls-5" d="M103.33,102.03s5.31-3.24,7.77-3.76c.39,3.24-.26,7.12-.26,7.12l-9.2,3.89,1.68-7.25Z"/>
  <path class="cls-5" d="M121.86,98.54l-.13,6.22s11.4,2.33,16.45,6.35c-1.42-3.76-2.16-6.92-2.16-6.92,0,0-6.39-4.87-14.17-5.65Z"/>
  <path class="cls-5" d="M125.09,103.46l-1.54-.39-1.58-.19c.1-1.12,.43-20.88,.64-33.9l.46-5.99,.73-.42c.38-.22,9.43-5.43,13.47-6.51,3.93-1.05,7.04-1.68,8.36,.43,.62,1,4.63,10.02,5.94,12.97l4.62,1.97,2.21-6.58,1.94,5.4-1.8,5.64-9.37-3.99-.25-.57c-2.48-5.61-5.32-11.9-5.92-13.03-.38-.09-1.51-.07-4.91,.84-3.03,.81-9.75,4.52-11.97,5.78l-.32,4.21c-.52,33.64-.63,34.11-.69,34.33Z"/>
  <ellipse class="cls-3" cx="107.93" cy="60.9" rx="3.3" ry="3.69"/>
  <ellipse class="cls-3" cx="134.36" cy="59.22" rx="3.3" ry="3.69"/>
  <ellipse class="cls-3" cx="126.52" cy="115.38" rx="3.3" ry="3.69"/>
  <ellipse class="cls-3" cx="105.8" cy="115.64" rx="3.3" ry="3.69"/>
  <line class="cls-4" x1="117.58" y1="62.39" x2="116.94" y2="74.05"/>
  <polygon class="cls-5" points="105.54 121.34 107.61 158.13 103.46 163.44 101.99 158.81 106.18 152.43 104.24 121.08 105.54 121.34"/>
  <path class="cls-5" d="M126.78,120.95l1.3-.39,10.1,31.35s6.61,1.17,8.55,3.11c.65,3.76,.91,6.48,.91,6.48,0,0-5.05-4.4-9.33-4.02-2.07-5.05-11.53-36.53-11.53-36.53Z"/>
  <line class="cls-1" x1="113.83" y1="181.71" x2="114.22" y2="188.57"/>
  <line class="cls-1" x1="147.77" y1="181.19" x2="149.71" y2="187.79"/>
  <path class="cls-5" d="M107.09,187.92l7.38,5.57,.78,39.12s-1.68,.78-1.68,0v-35.62l-6.74-3.89,.26-5.18Z"/>
  <polygon class="cls-5" points="156.32 185.72 150.49 194.27 161.76 233.65 163.18 232.88 153.08 197.9 158.65 189.87 156.32 185.72"/>
  <path class="cls-5" d="M101.9,250.09c-3.23,0-5.55-1.36-5.69-1.44l-.39-3.34s4.48,2.27,7.77,1.37c1.97-.54,3.87-1.62,5.54-2.58,1.42-.81,2.77-1.57,4.02-1.95l8.32-2.54-.07,4.11-6.44,1.93c-1.04,.31-2.26,.5-3.58,1.25-1.78,1.01-4.08,2.23-6.29,2.84-.78,.21-2.44,.34-3.19,.34Z"/>
  <polygon class="cls-5" points="164.74 255.85 158.46 252.64 158.37 247.84 165.37 251.81 169.62 251.59 174.29 246.26 174.29 251.08 169.96 255.76 164.74 255.85"/>
</svg>